<svg id="visual" viewBox="0 0 960 540" width="960" height="540" xmlns="http://www.w3.org/2000/svg" xmlns:xlink="http://www.w3.org/1999/xlink" version="1.1"><path d="M0 33L17.8 45.7C35.7 58.3 71.3 83.7 106.8 94.5C142.3 105.3 177.7 101.7 213.2 91.8C248.7 82 284.3 66 320 62.5C355.7 59 391.3 68 426.8 75.2C462.3 82.3 497.7 87.7 533.2 84.8C568.7 82 604.3 71 640 66.5C675.7 62 711.3 64 746.8 74C782.3 84 817.7 102 853.2 111C888.7 120 924.3 120 942.2 120L960 120L960 0L942.2 0C924.3 0 888.7 0 853.2 0C817.7 0 782.3 0 746.8 0C711.3 0 675.7 0 640 0C604.3 0 568.7 0 533.2 0C497.7 0 462.3 0 426.8 0C391.3 0 355.7 0 320 0C284.3 0 248.7 0 213.2 0C177.7 0 142.3 0 106.8 0C71.3 0 35.7 0 17.8 0L0 0Z" fill="#bad9f1"></path><path d="M0 239L17.8 244.3C35.7 249.7 71.3 260.3 106.8 267.5C142.3 274.7 177.7 278.3 213.2 255.8C248.7 233.3 284.3 184.7 320 167.5C355.7 150.3 391.3 164.7 426.8 183.5C462.3 202.3 497.7 225.7 533.2 241C568.7 256.3 604.3 263.7 640 263.7C675.7 263.7 711.3 256.3 746.8 253.7C782.3 251 817.7 253 853.2 241.3C888.7 229.7 924.3 204.3 942.2 191.7L960 179L960 118L942.2 118C924.3 118 888.7 118 853.2 109C817.7 100 782.3 82 746.8 72C711.3 62 675.7 60 640 64.5C604.3 69 568.7 80 533.2 82.8C497.7 85.7 462.3 80.3 426.8 73.2C391.3 66 355.7 57 320 60.5C284.3 64 248.7 80 213.2 89.8C177.7 99.7 142.3 103.3 106.8 92.5C71.3 81.7 35.7 56.3 17.8 43.7L0 31Z" fill="#abd0ee"></path><path d="M0 374L17.8 375.7C35.7 377.3 71.3 380.7 106.8 386.8C142.3 393 177.7 402 213.2 410.2C248.7 418.3 284.3 425.7 320 425.7C355.7 425.7 391.3 418.3 426.8 413C462.3 407.7 497.7 404.3 533.2 389.2C568.7 374 604.3 347 640 337C675.7 327 711.3 334 746.8 353.7C782.3 373.3 817.7 405.7 853.2 403.8C888.7 402 924.3 366 942.2 348L960 330L960 177L942.2 189.7C924.3 202.3 888.7 227.7 853.2 239.3C817.7 251 782.3 249 746.8 251.7C711.3 254.3 675.7 261.7 640 261.7C604.3 261.7 568.7 254.3 533.2 239C497.7 223.7 462.3 200.3 426.8 181.5C391.3 162.7 355.7 148.3 320 165.5C284.3 182.7 248.7 231.3 213.2 253.8C177.7 276.3 142.3 272.7 106.8 265.5C71.3 258.3 35.7 247.7 17.8 242.3L0 237Z" fill="#9bc8eb"></path><path d="M0 460L17.8 465.3C35.7 470.7 71.3 481.3 106.8 483.2C142.3 485 177.7 478 213.2 479C248.7 480 284.3 489 320 486.3C355.7 483.7 391.3 469.3 426.8 467.5C462.3 465.7 497.7 476.3 533.2 470.8C568.7 465.3 604.3 443.7 640 423.8C675.7 404 711.3 386 746.8 400.5C782.3 415 817.7 462 853.2 468.3C888.7 474.7 924.3 440.3 942.2 423.2L960 406L960 328L942.2 346C924.3 364 888.7 400 853.2 401.8C817.7 403.7 782.3 371.3 746.8 351.7C711.3 332 675.7 325 640 335C604.3 345 568.7 372 533.2 387.2C497.7 402.3 462.3 405.7 426.8 411C391.3 416.3 355.7 423.7 320 423.7C284.3 423.7 248.7 416.3 213.2 408.2C177.7 400 142.3 391 106.8 384.8C71.3 378.7 35.7 375.3 17.8 373.7L0 372Z" fill="#88b8de"></path><path d="M0 541L17.8 541C35.7 541 71.3 541 106.8 541C142.3 541 177.7 541 213.2 541C248.7 541 284.3 541 320 541C355.7 541 391.3 541 426.8 541C462.3 541 497.7 541 533.2 541C568.7 541 604.3 541 640 541C675.7 541 711.3 541 746.8 541C782.3 541 817.7 541 853.2 541C888.7 541 924.3 541 942.2 541L960 541L960 404L942.2 421.2C924.3 438.3 888.7 472.7 853.2 466.3C817.7 460 782.3 413 746.8 398.5C711.3 384 675.7 402 640 421.8C604.3 441.7 568.7 463.3 533.2 468.8C497.7 474.3 462.3 463.7 426.8 465.5C391.3 467.3 355.7 481.7 320 484.3C284.3 487 248.7 478 213.2 477C177.7 476 142.3 483 106.8 481.2C71.3 479.3 35.7 468.7 17.8 463.3L0 458Z" fill="#75a8d2"></path></svg>